<svg xmlns="http://www.w3.org/2000/svg" viewBox="0 0 115.98 122.88" xmlns:v="https://vecta.io/nano"><path d="M17.2 0h59.47c4.73 0 9.03 1.93 12.15 5.05s5.05 7.42 5.05 12.15v38.36c0 4.73-1.93 9.03-5.05 12.15s-7.42 5.05-12.15 5.05H46.93L20.81 95.21a2.89 2.89 0 0 1-4.08-.32 2.88 2.88 0 0 1-.69-2.07l1.39-20.07h-.23c-4.73 0-9.03-1.93-12.15-5.05C1.93 64.59 0 60.29 0 55.56V17.2c0-4.73 1.93-9.03 5.05-12.15A17.11 17.11 0 0 1 17.2 0h0zm85.11 27.98c3.37.65 6.39 2.31 8.73 4.65 3.05 3.05 4.95 7.26 4.95 11.9v38.36c0 4.64-1.89 8.85-4.95 11.9-3.05 3.05-7.26 4.95-11.9 4.95h-.61l1.42 20.44h0c.04.64-.15 1.3-.6 1.82a2.54 2.54 0 0 1-3.58.28l-26.22-23.2H35.01l17.01-17.3h36.04c7.86 0 14.3-6.43 14.3-14.3V29.11c-.01-.38-.02-.76-.05-1.13h0zm-76.63 15.7c-1.6 0-2.9-1.3-2.9-2.9s1.3-2.9 2.9-2.9h30.35c1.6 0 2.9 1.3 2.9 2.9s-1.3 2.9-2.9 2.9H25.68h0zm0-14.36c-1.6 0-2.9-1.3-2.9-2.9s1.3-2.9 2.9-2.9H68.7c1.6 0 2.9 1.3 2.9 2.9s-1.3 2.9-2.9 2.9H25.68h0zM76.66 5.8H17.2c-3.13 0-5.98 1.28-8.05 3.35S5.8 14.06 5.8 17.2v38.36c0 3.13 1.28 5.98 3.35 8.05s4.92 3.35 8.05 3.35h3.34v.01l.19.01c1.59.11 2.8 1.49 2.69 3.08l-1.13 16.26L43.83 67.8a2.87 2.87 0 0 1 2.04-.84h30.79c3.13 0 5.98-1.28 8.05-3.35s3.35-4.92 3.35-8.05V17.2c0-3.13-1.28-5.98-3.35-8.05-2.06-2.07-4.91-3.35-8.05-3.35h0z"/></svg>